pokemon-font.ufo
<glyph name="quotesingle" format="1">
  <advance width="320"/>
  <unicode hex="0027"/>
  <note>
    quotesingle
  </note>
  <outline>
    <contour>
      <point x="200" y="200" type="line"/>
      <point x="200" y="280" type="line"/>
      <point x="120" y="280" type="line"/>
      <point x="120" y="240" type="line"/>
      <point x="160" y="240" type="line"/>
      <point x="160" y="200" type="line"/>
    </contour>
    <contour>
      <point x="160" y="160" type="line"/>
      <point x="160" y="200" type="line"/>
      <point x="120" y="200" type="line"/>
      <point x="120" y="160" type="line"/>
    </contour>
  </outline>
</glyph>
<glyph name="parenleft" format="1">
  <advance width="320"/>
  <unicode hex="0028"/>
  <note>
    parenleft
  </note>
  <outline>
    <contour>
      <point x="200" y="80" type="line"/>
      <point x="200" y="200" type="line"/>
      <point x="160" y="200" type="line"/>
      <point x="160" y="80" type="line"/>
    </contour>
    <contour>
      <point x="240" y="40" type="line"/>
      <point x="240" y="80" type="line"/>
      <point x="200" y="80" type="line"/>
      <point x="200" y="40" type="line"/>
    </contour>
    <contour>
      <point x="320" y="0" type="line"/>
      <point x="320" y="40" type="line"/>
      <point x="240" y="40" type="line"/>
      <point x="240" y="0" type="line"/>
    </contour>
    <contour>
      <point x="240" y="200" type="line"/>
      <point x="240" y="240" type="line"/>
      <point x="200" y="240" type="line"/>
      <point x="200" y="200" type="line"/>
    </contour>
    <contour>
      <point x="320" y="240" type="line"/>
      <point x="320" y="280" type="line"/>
      <point x="240" y="280" type="line"/>
      <point x="240" y="240" type="line"/>
    </contour>
  </outline>
</glyph>
<glyph name="parenright" format="1">
  <advance width="320"/>
  <unicode hex="0029"/>
  <note>
    parenright
  </note>
  <outline>
    <contour>
      <point x="160" y="80" type="line"/>
      <point x="160" y="200" type="line"/>
      <point x="120" y="200" type="line"/>
      <point x="120" y="80" type="line"/>
    </contour>
    <contour>
      <point x="80" y="0" type="line"/>
      <point x="80" y="40" type="line"/>
      <point x="0" y="40" type="line"/>
      <point x="0" y="0" type="line"/>
    </contour>
    <contour>
      <point x="120" y="40" type="line"/>
      <point x="120" y="80" type="line"/>
      <point x="80" y="80" type="line"/>
      <point x="80" y="40" type="line"/>
    </contour>
    <contour>
      <point x="80" y="240" type="line"/>
      <point x="80" y="280" type="line"/>
      <point x="0" y="280" type="line"/>
      <point x="0" y="240" type="line"/>
    </contour>
    <contour>
      <point x="120" y="200" type="line"/>
      <point x="120" y="240" type="line"/>
      <point x="80" y="240" type="line"/>
      <point x="80" y="200" type="line"/>
    </contour>
  </outline>
</glyph>
<glyph name="comma" format="1">
  <advance width="320"/>
  <unicode hex="002C"/>
  <note>
    comma
  </note>
  <outline>
    <contour>
      <point x="120" y="0" type="line"/>
      <point x="120" y="120" type="line"/>
      <point x="40" y="120" type="line"/>
      <point x="40" y="40" type="line"/>
      <point x="80" y="40" type="line"/>
      <point x="80" y="0" type="line"/>
    </contour>
    <contour>
      <point x="80" y="-40" type="line"/>
      <point x="80" y="0" type="line"/>
      <point x="40" y="0" type="line"/>
      <point x="40" y="-40" type="line"/>
    </contour>
  </outline>
</glyph>
<glyph name="hyphen" format="1">
  <advance width="320"/>
  <unicode hex="002D"/>
  <note>
    hyphen
  </note>
  <outline>
    <contour>
      <point x="240" y="80" type="line"/>
      <point x="240" y="120" type="line"/>
      <point x="80" y="120" type="line"/>
      <point x="80" y="80" type="line"/>
    </contour>
  </outline>
</glyph>
<glyph name="period" format="1">
  <advance width="320"/>
  <unicode hex="002E"/>
  <note>
    period
  </note>
  <outline>
    <contour>
      <point x="120" y="0" type="line"/>
      <point x="120" y="80" type="line"/>
      <point x="40" y="80" type="line"/>
      <point x="40" y="0" type="line"/>
    </contour>
  </outline>
</glyph>
<glyph name="semicolon" format="1">
  <advance width="320"/>
  <unicode hex="003B"/>
  <note>
    semicolon
  </note>
  <outline>
    <contour>
      <point x="200" y="0" type="line"/>
      <point x="200" y="120" type="line"/>
      <point x="120" y="120" type="line"/>
      <point x="120" y="40" type="line"/>
      <point x="160" y="40" type="line"/>
      <point x="160" y="0" type="line"/>
    </contour>
    <contour>
      <point x="160" y="-40" type="line"/>
      <point x="160" y="0" type="line"/>
      <point x="120" y="0" type="line"/>
      <point x="120" y="-40" type="line"/>
    </contour>
    <contour>
      <point x="200" y="160" type="line"/>
      <point x="200" y="240" type="line"/>
      <point x="120" y="240" type="line"/>
      <point x="120" y="160" type="line"/>
    </contour>
  </outline>
</glyph>
<glyph name="bracketleft" format="1">
  <advance width="320"/>
  <unicode hex="005B"/>
  <note>
    bracketleft
  </note>
  <outline>
    <contour>
      <point x="320" y="0" type="line"/>
      <point x="320" y="40" type="line"/>
      <point x="240" y="40" type="line"/>
      <point x="240" y="240" type="line"/>
      <point x="320" y="240" type="line"/>
      <point x="320" y="280" type="line"/>
      <point x="200" y="280" type="line"/>
      <point x="200" y="0" type="line"/>
    </contour>
  </outline>
</glyph>
<glyph name="bracketright" format="1">
  <advance width="320"/>
  <unicode hex="005D"/>
  <note>
    bracketright
  </note>
  <outline>
    <contour>
      <point x="120" y="0" type="line"/>
      <point x="120" y="280" type="line"/>
      <point x="0" y="280" type="line"/>
      <point x="0" y="240" type="line"/>
      <point x="80" y="240" type="line"/>
      <point x="80" y="40" type="line"/>
      <point x="0" y="40" type="line"/>
      <point x="0" y="0" type="line"/>
    </contour>
  </outline>
</glyph>
<glyph name="underscore" format="1">
  <advance width="320"/>
  <unicode hex="005F"/>
  <note>
    hyphen
  </note>
  <outline>
    <contour>
      <point x="280" y="-40" type="line"/>
      <point x="280" y="0" type="line"/>
      <point x="40" y="0" type="line"/>
      <point x="40" y="-40" type="line"/>
    </contour>
  </outline>
</glyph>
<glyph name="h" format="1">
  <advance width="320"/>
  <unicode hex="0068"/>
  <note>
    h
  </note>
  <outline>
    <contour>
      <point x="80" y="0" type="line"/>
      <point x="80" y="120" type="line"/>
      <point x="200" y="120" type="line"/>
      <point x="200" y="160" type="line"/>
      <point x="80" y="160" type="line"/>
      <point x="80" y="280" type="line"/>
      <point x="40" y="280" type="line"/>
      <point x="40" y="0" type="line"/>
    </contour>
    <contour>
      <point x="240" y="0" type="line"/>
      <point x="240" y="120" type="line"/>
      <point x="200" y="120" type="line"/>
      <point x="200" y="0" type="line"/>
    </contour>
  </outline>
</glyph>
<glyph name="m" format="1">
  <advance width="320"/>
  <unicode hex="006D"/>
  <note>
    m
  </note>
  <outline>
    <contour>
      <point x="80" y="0" type="line"/>
      <point x="80" y="160" type="line"/>
      <point x="160" y="160" type="line"/>
      <point x="160" y="200" type="line"/>
      <point x="40" y="200" type="line"/>
      <point x="40" y="0" type="line"/>
    </contour>
    <contour>
      <point x="200" y="0" type="line"/>
      <point x="200" y="160" type="line"/>
      <point x="160" y="160" type="line"/>
      <point x="160" y="0" type="line"/>
    </contour>
    <contour>
      <point x="320" y="0" type="line"/>
      <point x="320" y="160" type="line"/>
      <point x="280" y="160" type="line"/>
      <point x="280" y="0" type="line"/>
    </contour>
    <contour>
      <point x="280" y="160" type="line"/>
      <point x="280" y="200" type="line"/>
      <point x="200" y="200" type="line"/>
      <point x="200" y="160" type="line"/>
    </contour>
  </outline>
</glyph>
<glyph name="q" format="1">
  <advance width="320"/>
  <unicode hex="0071"/>
  <note>
    q
  </note>
  <outline>
    <contour>
      <point x="280" y="-40" type="line"/>
      <point x="280" y="200" type="line"/>
      <point x="80" y="200" type="line"/>
      <point x="80" y="160" type="line"/>
      <point x="240" y="160" type="line"/>
      <point x="240" y="80" type="line"/>
      <point x="80" y="80" type="line"/>
      <point x="80" y="40" type="line"/>
      <point x="240" y="40" type="line"/>
      <point x="240" y="-40" type="line"/>
    </contour>
    <contour>
      <point x="80" y="80" type="line"/>
      <point x="80" y="160" type="line"/>
      <point x="40" y="160" type="line"/>
      <point x="40" y="80" type="line"/>
    </contour>
  </outline>
</glyph>
<glyph name="r" format="1">
  <advance width="320"/>
  <unicode hex="0072"/>
  <note>
    r
  </note>
  <outline>
    <contour>
      <point x="80" y="0" type="line"/>
      <point x="80" y="80" type="line"/>
      <point x="120" y="80" type="line"/>
      <point x="120" y="120" type="line"/>
      <point x="80" y="120" type="line"/>
      <point x="80" y="200" type="line"/>
      <point x="40" y="200" type="line"/>
      <point x="40" y="0" type="line"/>
    </contour>
    <contour>
      <point x="160" y="120" type="line"/>
      <point x="160" y="160" type="line"/>
      <point x="120" y="160" type="line"/>
      <point x="120" y="120" type="line"/>
    </contour>
    <contour>
      <point x="280" y="160" type="line"/>
      <point x="280" y="200" type="line"/>
      <point x="160" y="200" type="line"/>
      <point x="160" y="160" type="line"/>
    </contour>
  </outline>
</glyph>
<glyph name="t" format="1">
  <advance width="320"/>
  <unicode hex="0074"/>
  <note>
    t
  </note>
  <outline>
    <contour>
      <point x="160" y="40" type="line"/>
      <point x="160" y="160" type="line"/>
      <point x="240" y="160" type="line"/>
      <point x="240" y="200" type="line"/>
      <point x="160" y="200" type="line"/>
      <point x="160" y="240" type="line"/>
      <point x="120" y="240" type="line"/>
      <point x="120" y="200" type="line"/>
      <point x="40" y="200" type="line"/>
      <point x="40" y="160" type="line"/>
      <point x="120" y="160" type="line"/>
      <point x="120" y="40" type="line"/>
    </contour>
    <contour>
      <point x="240" y="0" type="line"/>
      <point x="240" y="40" type="line"/>
      <point x="160" y="40" type="line"/>
      <point x="160" y="0" type="line"/>
    </contour>
  </outline>
</glyph>
<glyph name="v" format="1">
  <advance width="320"/>
  <unicode hex="0076"/>
  <note>
    v
  </note>
  <outline>
    <contour>
      <point x="240" y="80" type="line"/>
      <point x="240" y="200" type="line"/>
      <point x="200" y="200" type="line"/>
      <point x="200" y="80" type="line"/>
    </contour>
    <contour>
      <point x="120" y="40" type="line"/>
      <point x="120" y="80" type="line"/>
      <point x="80" y="80" type="line"/>
      <point x="80" y="40" type="line"/>
    </contour>
    <contour>
      <point x="160" y="0" type="line"/>
      <point x="160" y="40" type="line"/>
      <point x="120" y="40" type="line"/>
      <point x="120" y="0" type="line"/>
    </contour>
    <contour>
      <point x="80" y="80" type="line"/>
      <point x="80" y="200" type="line"/>
      <point x="40" y="200" type="line"/>
      <point x="40" y="80" type="line"/>
    </contour>
    <contour>
      <point x="200" y="40" type="line"/>
      <point x="200" y="80" type="line"/>
      <point x="160" y="80" type="line"/>
      <point x="160" y="40" type="line"/>
    </contour>
  </outline>
</glyph>
<glyph name="asciitilde" format="1">
  <advance width="320"/>
  <unicode hex="007E"/>
  <outline>
    <contour>
      <point x="240" y="200" type="line"/>
      <point x="240" y="240" type="line"/>
      <point x="160" y="240" type="line"/>
      <point x="160" y="200" type="line"/>
    </contour>
    <contour>
      <point x="80" y="200" type="line"/>
      <point x="80" y="240" type="line"/>
      <point x="40" y="240" type="line"/>
      <point x="40" y="200" type="line"/>
    </contour>
    <contour>
      <point x="160" y="240" type="line"/>
      <point x="160" y="280" type="line"/>
      <point x="80" y="280" type="line"/>
      <point x="80" y="240" type="line"/>
    </contour>
    <contour>
      <point x="280" y="240" type="line"/>
      <point x="280" y="280" type="line"/>
      <point x="240" y="280" type="line"/>
      <point x="240" y="240" type="line"/>
    </contour>
  </outline>
</glyph>
<glyph name="sterling" format="1">
  <advance width="320"/>
  <unicode hex="00A3"/>
  <outline>
    <contour>
      <point x="240" y="-40" type="line"/>
      <point x="240" y="0" type="line"/>
      <point x="80" y="0" type="line"/>
      <point x="80" y="80" type="line"/>
      <point x="160" y="80" type="line"/>
      <point x="160" y="120" type="line"/>
      <point x="80" y="120" type="line"/>
      <point x="80" y="240" type="line"/>
      <point x="40" y="240" type="line"/>
      <point x="40" y="120" type="line"/>
      <point x="0" y="120" type="line"/>
      <point x="0" y="80" type="line"/>
      <point x="40" y="80" type="line"/>
      <point x="40" y="0" type="line"/>
      <point x="0" y="0" type="line"/>
      <point x="0" y="-40" type="line"/>
    </contour>
    <contour>
      <point x="200" y="240" type="line"/>
      <point x="200" y="280" type="line"/>
      <point x="80" y="280" type="line"/>
      <point x="80" y="240" type="line"/>
    </contour>
    <contour>
      <point x="240" y="200" type="line"/>
      <point x="240" y="240" type="line"/>
      <point x="200" y="240" type="line"/>
      <point x="200" y="200" type="line"/>
    </contour>
  </outline>
</glyph>
<glyph name="currency" format="1">
  <advance width="320"/>
  <unicode hex="00A4"/>
  <outline>
    <contour>
      <point x="60" y="0" type="line"/>
      <point x="60" y="40" type="line"/>
      <point x="20" y="40" type="line"/>
      <point x="20" y="0" type="line"/>
    </contour>
    <contour>
      <point x="60" y="200" type="line"/>
      <point x="60" y="240" type="line"/>
      <point x="20" y="240" type="line"/>
      <point x="20" y="200" type="line"/>
    </contour>
    <contour>
      <point x="220" y="40" type="line"/>
      <point x="220" y="200" type="line"/>
      <point x="60" y="200" type="line"/>
      <point x="60" y="40" type="line"/>
    </contour>
    <contour>
      <point x="100" y="160" type="line"/>
      <point x="180" y="160" type="line"/>
      <point x="180" y="80" type="line"/>
      <point x="100" y="80" type="line"/>
    </contour>
    <contour>
      <point x="260" y="0" type="line"/>
      <point x="260" y="40" type="line"/>
      <point x="220" y="40" type="line"/>
      <point x="220" y="0" type="line"/>
    </contour>
    <contour>
      <point x="260" y="200" type="line"/>
      <point x="260" y="240" type="line"/>
      <point x="220" y="240" type="line"/>
      <point x="220" y="200" type="line"/>
    </contour>
  </outline>
</glyph>
<glyph name="ntilde" format="1">
  <advance width="320"/>
  <unicode hex="00F1"/>
  <note>
    ntilde
  </note>
  <outline>
    <contour>
      <point x="120" y="0" type="line"/>
      <point x="120" y="160" type="line"/>
      <point x="240" y="160" type="line"/>
      <point x="240" y="240" type="line"/>
      <point x="160" y="240" type="line"/>
      <point x="160" y="200" type="line"/>
      <point x="80" y="200" type="line"/>
      <point x="80" y="0" type="line"/>
    </contour>
    <contour>
      <point x="80" y="200" type="line"/>
      <point x="80" y="240" type="line"/>
      <point x="40" y="240" type="line"/>
      <point x="40" y="200" type="line"/>
    </contour>
    <contour>
      <point x="280" y="0" type="line"/>
      <point x="280" y="160" type="line"/>
      <point x="240" y="160" type="line"/>
      <point x="240" y="0" type="line"/>
    </contour>
    <contour>
      <point x="160" y="240" type="line"/>
      <point x="160" y="280" type="line"/>
      <point x="80" y="280" type="line"/>
      <point x="80" y="240" type="line"/>
    </contour>
    <contour>
      <point x="280" y="240" type="line"/>
      <point x="280" y="280" type="line"/>
      <point x="240" y="280" type="line"/>
      <point x="240" y="240" type="line"/>
    </contour>
  </outline>
</glyph>
<glyph name="gravecomb" format="1">
  <advance width="320"/>
  <unicode hex="0300"/>
  <outline>
    <contour>
      <point x="160" y="200" type="line"/>
      <point x="160" y="240" type="line"/>
      <point x="120" y="240" type="line"/>
      <point x="120" y="200" type="line"/>
    </contour>
    <contour>
      <point x="120" y="240" type="line"/>
      <point x="120" y="280" type="line"/>
      <point x="80" y="280" type="line"/>
      <point x="80" y="240" type="line"/>
    </contour>
  </outline>
</glyph>
<glyph name="macroncomb" format="1">
  <advance width="320"/>
  <unicode hex="0304"/>
  <outline>
    <contour>
      <point x="244" y="240" type="line"/>
      <point x="244" y="280" type="line"/>
      <point x="40" y="280" type="line"/>
      <point x="40" y="240" type="line"/>
    </contour>
  </outline>
</glyph>
<glyph name="dotaccentcomb" format="1">
  <advance width="320"/>
  <unicode hex="0307"/>
  <outline>
    <contour>
      <point x="160" y="240" type="line"/>
      <point x="160" y="280" type="line"/>
      <point x="120" y="280" type="line"/>
      <point x="120" y="240" type="line"/>
    </contour>
  </outline>
</glyph>
<glyph name="commaturnedabovecomb" format="1">
  <advance width="320"/>
  <unicode hex="0312"/>
  <outline>
    <contour>
      <point x="160" y="200" type="line"/>
      <point x="160" y="240" type="line"/>
      <point x="120" y="240" type="line"/>
      <point x="120" y="280" type="line"/>
      <point x="80" y="280" type="line"/>
      <point x="80" y="200" type="line"/>
    </contour>
  </outline>
</glyph>
<glyph name="commaaccentcomb" format="1">
  <advance width="320"/>
  <unicode hex="0326"/>
  <outline>
    <contour>
      <point x="200" y="-40" type="line"/>
      <point x="200" y="40" type="line"/>
      <point x="160" y="40" type="line"/>
      <point x="160" y="-40" type="line"/>
    </contour>
  </outline>
</glyph>
<glyph name="ogonekcomb" format="1">
  <advance width="320"/>
  <unicode hex="0328"/>
  <outline>
    <contour>
      <point x="200" y="-40" type="line"/>
      <point x="200" y="0" type="line"/>
      <point x="160" y="0" type="line"/>
      <point x="160" y="40" type="line"/>
      <point x="120" y="40" type="line"/>
      <point x="120" y="-40" type="line"/>
    </contour>
  </outline>
</glyph>
<glyph name="strokeshortcomb" format="1">
  <advance width="320"/>
  <unicode hex="0335"/>
  <outline>
    <contour>
      <point x="160" y="120" type="line"/>
      <point x="160" y="160" type="line"/>
      <point x="0" y="160" type="line"/>
      <point x="0" y="120" type="line"/>
    </contour>
  </outline>
</glyph>
<glyph name="endash" format="1">
  <advance width="320"/>
  <unicode hex="2013"/>
  <outline>
    <contour>
      <point x="280" y="80" type="line"/>
      <point x="280" y="120" type="line"/>
      <point x="40" y="120" type="line"/>
      <point x="40" y="80" type="line"/>
    </contour>
  </outline>
</glyph>
<glyph name="emdash" format="1">
  <advance width="320"/>
  <unicode hex="2014"/>
  <outline>
    <contour>
      <point x="360" y="80" type="line"/>
      <point x="360" y="120" type="line"/>
      <point x="-40" y="120" type="line"/>
      <point x="-40" y="80" type="line"/>
    </contour>
  </outline>
</glyph>
<glyph name="ellipsis" format="1">
  <advance width="320"/>
  <unicode hex="2026"/>
  <note>
    o
  </note>
  <outline>
    <contour>
      <point x="280" y="80" type="line"/>
      <point x="280" y="120" type="line"/>
      <point x="240" y="120" type="line"/>
      <point x="240" y="80" type="line"/>
    </contour>
    <contour>
      <point x="40" y="80" type="line"/>
      <point x="40" y="120" type="line"/>
      <point x="0" y="120" type="line"/>
      <point x="0" y="80" type="line"/>
    </contour>
    <contour>
      <point x="160" y="80" type="line"/>
      <point x="160" y="120" type="line"/>
      <point x="120" y="120" type="line"/>
      <point x="120" y="80" type="line"/>
    </contour>
  </outline>
</glyph>
<glyph name="female" format="1">
  <advance width="320"/>
  <unicode hex="2640"/>
  <note>
    female
  </note>
  <outline>
    <contour>
      <point x="160" y="-40" type="line"/>
      <point x="160" y="40" type="line"/>
      <point x="240" y="40" type="line"/>
      <point x="240" y="80" type="line"/>
      <point x="160" y="80" type="line"/>
      <point x="160" y="120" type="line"/>
      <point x="200" y="120" type="line"/>
      <point x="200" y="160" type="line"/>
      <point x="80" y="160" type="line"/>
      <point x="80" y="120" type="line"/>
      <point x="120" y="120" type="line"/>
      <point x="120" y="80" type="line"/>
      <point x="40" y="80" type="line"/>
      <point x="40" y="40" type="line"/>
      <point x="120" y="40" type="line"/>
      <point x="120" y="-40" type="line"/>
    </contour>
    <contour>
      <point x="80" y="160" type="line"/>
      <point x="80" y="240" type="line"/>
      <point x="40" y="240" type="line"/>
      <point x="40" y="160" type="line"/>
    </contour>
    <contour>
      <point x="200" y="240" type="line"/>
      <point x="200" y="280" type="line"/>
      <point x="80" y="280" type="line"/>
      <point x="80" y="240" type="line"/>
    </contour>
    <contour>
      <point x="240" y="160" type="line"/>
      <point x="240" y="240" type="line"/>
      <point x="200" y="240" type="line"/>
      <point x="200" y="160" type="line"/>
    </contour>
  </outline>
</glyph>
<glyph name="period-han" format="1">
  <advance width="320"/>
  <unicode hex="3002"/>
  <note>
    q
  </note>
  <outline>
    <contour>
      <point x="160" y="0" type="line"/>
      <point x="160" y="120" type="line"/>
      <point x="40" y="120" type="line"/>
      <point x="40" y="0" type="line"/>
    </contour>
    <contour>
      <point x="80" y="80" type="line"/>
      <point x="120" y="80" type="line"/>
      <point x="120" y="40" type="line"/>
      <point x="80" y="40" type="line"/>
    </contour>
  </outline>
</glyph>
<glyph name="tusmall-hira" format="1">
  <advance width="320"/>
  <unicode hex="3063"/>
  <note>
    Q
  </note>
  <outline>
    <contour>
      <point x="200" y="120" type="line"/>
      <point x="200" y="160" type="line"/>
      <point x="40" y="160" type="line"/>
      <point x="40" y="120" type="line"/>
    </contour>
    <contour>
      <point x="160" y="-40" type="line"/>
      <point x="160" y="0" type="line"/>
      <point x="80" y="0" type="line"/>
      <point x="80" y="-40" type="line"/>
    </contour>
    <contour>
      <point x="200" y="0" type="line"/>
      <point x="200" y="40" type="line"/>
      <point x="160" y="40" type="line"/>
      <point x="160" y="0" type="line"/>
    </contour>
    <contour>
      <point x="240" y="40" type="line"/>
      <point x="240" y="120" type="line"/>
      <point x="200" y="120" type="line"/>
      <point x="200" y="40" type="line"/>
    </contour>
  </outline>
</glyph>
<glyph name="voicedcomb-kana" format="1">
  <advance width="320"/>
  <unicode hex="3099"/>
  <outline>
    <contour>
      <point x="280" y="320" type="line"/>
      <point x="280" y="360" type="line"/>
      <point x="240" y="360" type="line"/>
      <point x="240" y="320" type="line"/>
    </contour>
    <contour>
      <point x="160" y="320" type="line"/>
      <point x="160" y="360" type="line"/>
      <point x="120" y="360" type="line"/>
      <point x="120" y="320" type="line"/>
    </contour>
    <contour>
      <point x="200" y="280" type="line"/>
      <point x="200" y="320" type="line"/>
      <point x="160" y="320" type="line"/>
      <point x="160" y="280" type="line"/>
    </contour>
    <contour>
      <point x="240" y="360" type="line"/>
      <point x="240" y="400" type="line"/>
      <point x="200" y="400" type="line"/>
      <point x="200" y="360" type="line"/>
    </contour>
  </outline>
</glyph>
<glyph name="semivoicedcomb-kana" format="1">
  <advance width="320"/>
  <unicode hex="309A"/>
  <outline>
    <contour>
      <point x="280" y="280" type="line"/>
      <point x="280" y="400" type="line"/>
      <point x="160" y="400" type="line"/>
      <point x="160" y="280" type="line"/>
    </contour>
    <contour>
      <point x="200" y="360" type="line"/>
      <point x="240" y="360" type="line"/>
      <point x="240" y="320" type="line"/>
      <point x="200" y="320" type="line"/>
    </contour>
  </outline>
</glyph>
<glyph name="iteration-hira" format="1">
  <advance width="320"/>
  <unicode hex="309D"/>
  <outline>
    <contour>
      <point x="200" y="40" type="line"/>
      <point x="200" y="120" type="line"/>
      <point x="160" y="120" type="line"/>
      <point x="160" y="40" type="line"/>
    </contour>
    <contour>
      <point x="160" y="0" type="line"/>
      <point x="160" y="40" type="line"/>
      <point x="120" y="40" type="line"/>
      <point x="120" y="0" type="line"/>
    </contour>
    <contour>
      <point x="120" y="160" type="line"/>
      <point x="120" y="200" type="line"/>
      <point x="80" y="200" type="line"/>
      <point x="80" y="160" type="line"/>
    </contour>
    <contour>
      <point x="160" y="120" type="line"/>
      <point x="160" y="160" type="line"/>
      <point x="120" y="160" type="line"/>
      <point x="120" y="120" type="line"/>
    </contour>
  </outline>
</glyph>
<glyph name="voicediteration-hira" format="1">
  <advance width="320"/>
  <unicode hex="309E"/>
  <outline>
    <contour>
      <point x="200" y="40" type="line"/>
      <point x="200" y="120" type="line"/>
      <point x="160" y="120" type="line"/>
      <point x="160" y="40" type="line"/>
    </contour>
    <contour>
      <point x="160" y="0" type="line"/>
      <point x="160" y="40" type="line"/>
      <point x="120" y="40" type="line"/>
      <point x="120" y="0" type="line"/>
    </contour>
    <contour>
      <point x="120" y="160" type="line"/>
      <point x="120" y="200" type="line"/>
      <point x="80" y="200" type="line"/>
      <point x="80" y="160" type="line"/>
    </contour>
    <contour>
      <point x="160" y="120" type="line"/>
      <point x="160" y="160" type="line"/>
      <point x="120" y="160" type="line"/>
      <point x="120" y="120" type="line"/>
    </contour>
    <contour>
      <point x="160" y="240" type="line"/>
      <point x="160" y="280" type="line"/>
      <point x="120" y="280" type="line"/>
      <point x="120" y="240" type="line"/>
    </contour>
    <contour>
      <point x="200" y="200" type="line"/>
      <point x="200" y="240" type="line"/>
      <point x="160" y="240" type="line"/>
      <point x="160" y="200" type="line"/>
    </contour>
    <contour>
      <point x="240" y="280" type="line"/>
      <point x="240" y="320" type="line"/>
      <point x="200" y="320" type="line"/>
      <point x="200" y="280" type="line"/>
    </contour>
    <contour>
      <point x="280" y="240" type="line"/>
      <point x="280" y="280" type="line"/>
      <point x="240" y="280" type="line"/>
      <point x="240" y="240" type="line"/>
    </contour>
  </outline>
</glyph>
<glyph name="dblhyphen-kana" format="1">
  <advance width="320"/>
  <unicode hex="30A0"/>
  <note>
    A
  </note>
  <outline>
    <contour>
      <point x="244" y="120" type="line"/>
      <point x="244" y="160" type="line"/>
      <point x="80" y="160" type="line"/>
      <point x="80" y="120" type="line"/>
    </contour>
    <contour>
      <point x="244" y="40" type="line"/>
      <point x="244" y="80" type="line"/>
      <point x="80" y="80" type="line"/>
      <point x="80" y="40" type="line"/>
    </contour>
  </outline>
</glyph>
<glyph name="ismall-kata" format="1">
  <advance width="320"/>
  <unicode hex="30A3"/>
  <note>
    q
  </note>
  <outline>
    <contour>
      <point x="120" y="-40" type="line"/>
      <point x="120" y="120" type="line"/>
      <point x="80" y="120" type="line"/>
      <point x="80" y="80" type="line"/>
      <point x="0" y="80" type="line"/>
      <point x="0" y="40" type="line"/>
      <point x="80" y="40" type="line"/>
      <point x="80" y="-40" type="line"/>
    </contour>
    <contour>
      <point x="160" y="120" type="line"/>
      <point x="160" y="160" type="line"/>
      <point x="120" y="160" type="line"/>
      <point x="120" y="120" type="line"/>
    </contour>
  </outline>
</glyph>
<glyph name="ko-kata" format="1">
  <advance width="320"/>
  <unicode hex="30B3"/>
  <note>
    J
  </note>
  <outline>
    <contour>
      <point x="240" y="-40" type="line"/>
      <point x="240" y="240" type="line"/>
      <point x="0" y="240" type="line"/>
      <point x="0" y="200" type="line"/>
      <point x="200" y="200" type="line"/>
      <point x="200" y="0" type="line"/>
      <point x="0" y="0" type="line"/>
      <point x="0" y="-40" type="line"/>
    </contour>
  </outline>
</glyph>
<glyph name="dot-kata" format="1">
  <advance width="320"/>
  <unicode hex="30FB"/>
  <note>
    p
  </note>
  <outline>
    <contour>
      <point x="200" y="80" type="line"/>
      <point x="200" y="160" type="line"/>
      <point x="120" y="160" type="line"/>
      <point x="120" y="80" type="line"/>
    </contour>
  </outline>
</glyph>
<glyph name="prolonged-kana" format="1">
  <advance width="320"/>
  <unicode hex="30FC"/>
  <note>
    l
  </note>
  <outline>
    <contour>
      <point x="280" y="120" type="line"/>
      <point x="280" y="160" type="line"/>
      <point x="40" y="160" type="line"/>
      <point x="40" y="120" type="line"/>
    </contour>
  </outline>
</glyph>
<glyph name="iteration-kata" format="1">
  <advance width="320"/>
  <unicode hex="30FD"/>
  <outline>
    <contour>
      <point x="216" y="32" type="line"/>
      <point x="216" y="72" type="line"/>
      <point x="176" y="72" type="line"/>
      <point x="176" y="32" type="line"/>
    </contour>
    <contour>
      <point x="96" y="152" type="line"/>
      <point x="96" y="192" type="line"/>
      <point x="56" y="192" type="line"/>
      <point x="56" y="152" type="line"/>
    </contour>
    <contour>
      <point x="136" y="112" type="line"/>
      <point x="136" y="152" type="line"/>
      <point x="96" y="152" type="line"/>
      <point x="96" y="112" type="line"/>
    </contour>
    <contour>
      <point x="176" y="72" type="line"/>
      <point x="176" y="112" type="line"/>
      <point x="136" y="112" type="line"/>
      <point x="136" y="72" type="line"/>
    </contour>
  </outline>
</glyph>
<glyph name="voicediteration-kata" format="1">
  <advance width="320"/>
  <unicode hex="30FE"/>
  <outline>
    <contour>
      <point x="280" y="200" type="line"/>
      <point x="280" y="240" type="line"/>
      <point x="240" y="240" type="line"/>
      <point x="240" y="200" type="line"/>
    </contour>
    <contour>
      <point x="96" y="152" type="line"/>
      <point x="96" y="192" type="line"/>
      <point x="56" y="192" type="line"/>
      <point x="56" y="152" type="line"/>
    </contour>
    <contour>
      <point x="136" y="112" type="line"/>
      <point x="136" y="152" type="line"/>
      <point x="96" y="152" type="line"/>
      <point x="96" y="112" type="line"/>
    </contour>
    <contour>
      <point x="176" y="72" type="line"/>
      <point x="176" y="112" type="line"/>
      <point x="136" y="112" type="line"/>
      <point x="136" y="72" type="line"/>
    </contour>
    <contour>
      <point x="216" y="32" type="line"/>
      <point x="216" y="72" type="line"/>
      <point x="176" y="72" type="line"/>
      <point x="176" y="32" type="line"/>
    </contour>
    <contour>
      <point x="160" y="200" type="line"/>
      <point x="160" y="240" type="line"/>
      <point x="120" y="240" type="line"/>
      <point x="120" y="200" type="line"/>
    </contour>
    <contour>
      <point x="200" y="160" type="line"/>
      <point x="200" y="200" type="line"/>
      <point x="160" y="200" type="line"/>
      <point x="160" y="160" type="line"/>
    </contour>
    <contour>
      <point x="240" y="240" type="line"/>
      <point x="240" y="280" type="line"/>
      <point x="200" y="280" type="line"/>
      <point x="200" y="240" type="line"/>
    </contour>
  </outline>
</glyph>
<glyph name="digraphkoto-kata" format="1">
  <advance width="320"/>
  <unicode hex="30FF"/>
  <outline>
    <contour>
      <point x="240" y="-40" type="line"/>
      <point x="240" y="240" type="line"/>
      <point x="0" y="240" type="line"/>
      <point x="0" y="200" type="line"/>
      <point x="200" y="200" type="line"/>
      <point x="200" y="-40" type="line"/>
    </contour>
  </outline>
</glyph>
<glyph name="u_n_o_w_n_b.liga" format="1">
  <advance width="320"/>
  <note>
    b
  </note>
  <outline>
    <contour>
      <point x="240" y="80" type="line"/>
      <point x="240" y="200" type="line"/>
      <point x="200" y="200" type="line"/>
      <point x="200" y="80" type="line"/>
    </contour>
    <contour>
      <point x="80" y="0" type="line"/>
      <point x="80" y="40" type="line"/>
      <point x="40" y="40" type="line"/>
      <point x="40" y="0" type="line"/>
    </contour>
    <contour>
      <point x="200" y="-40" type="line"/>
      <point x="200" y="0" type="line"/>
      <point x="80" y="0" type="line"/>
      <point x="80" y="-40" type="line"/>
    </contour>
    <contour>
      <point x="80" y="80" type="line"/>
      <point x="80" y="200" type="line"/>
      <point x="40" y="200" type="line"/>
      <point x="40" y="80" type="line"/>
    </contour>
    <contour>
      <point x="200" y="40" type="line"/>
      <point x="200" y="80" type="line"/>
      <point x="80" y="80" type="line"/>
      <point x="80" y="40" type="line"/>
    </contour>
    <contour>
      <point x="240" y="0" type="line"/>
      <point x="240" y="40" type="line"/>
      <point x="200" y="40" type="line"/>
      <point x="200" y="0" type="line"/>
    </contour>
    <contour>
      <point x="160" y="120" type="line"/>
      <point x="160" y="160" type="line"/>
      <point x="120" y="160" type="line"/>
      <point x="120" y="120" type="line"/>
    </contour>
    <contour>
      <point x="200" y="200" type="line"/>
      <point x="200" y="240" type="line"/>
      <point x="80" y="240" type="line"/>
      <point x="80" y="200" type="line"/>
    </contour>
  </outline>
</glyph>
<glyph name="u_n_o_w_n_v.liga" format="1">
  <advance width="320"/>
  <note>
    v
  </note>
  <outline>
    <contour>
      <point x="200" y="120" type="line"/>
      <point x="200" y="160" type="line"/>
      <point x="120" y="160" type="line"/>
      <point x="120" y="200" type="line"/>
      <point x="200" y="200" type="line"/>
      <point x="200" y="160" type="line"/>
      <point x="240" y="160" type="line"/>
      <point x="240" y="280" type="line"/>
      <point x="200" y="280" type="line"/>
      <point x="200" y="240" type="line"/>
      <point x="80" y="240" type="line"/>
      <point x="80" y="280" type="line"/>
      <point x="40" y="280" type="line"/>
      <point x="40" y="200" type="line"/>
      <point x="80" y="200" type="line"/>
      <point x="80" y="120" type="line"/>
    </contour>
    <contour>
      <point x="80" y="40" type="line"/>
      <point x="80" y="120" type="line"/>
      <point x="40" y="120" type="line"/>
      <point x="40" y="40" type="line"/>
    </contour>
    <contour>
      <point x="200" y="0" type="line"/>
      <point x="200" y="40" type="line"/>
      <point x="80" y="40" type="line"/>
      <point x="80" y="0" type="line"/>
    </contour>
    <contour>
      <point x="240" y="40" type="line"/>
      <point x="240" y="120" type="line"/>
      <point x="200" y="120" type="line"/>
      <point x="200" y="40" type="line"/>
    </contour>
  </outline>
</glyph>
